#!OML:ASF G:\JayActor3\Patient Classification 1\Patient 1\Session 6\male.ASF
:FULLY-SPECIFIED
:DEGREES
1102
root -31.3633 17.3996 1.23728 188.865 -8.62456 -177.044
lowerback 8.66342 3.65156 11.4819
upperback -0.44865 5.95845 0.830062
thorax -4.25946 2.63713 -6.21033
lowerneck 3.1142 -6.3419 -0.917927
upperneck -6.41222 -8.34702 4.19828
head -2.33666 -4.29045 1.73026
rclavicle 7.21588e-014 4.69132e-014
rhumerus -33.2214 10.704 -90.5412
rradius 43.0109
rwrist -2.2862
rhand -19.1169 -14.187
rfingers 7.12502
rthumb 7.19232 -44.0448
lclavicle 7.21588e-014 4.69132e-014
lhumerus -67.3161 1.28326 84.6541
lradius 37.1766
lwrist 24.2829
lhand -18.0491 15.8058
lfingers 7.12502
lthumb 8.22294 45.6258
rfemur 2.27529 -8.68381 32.4214
rtibia 13.0496
rfoot 2.7731 1.89207
rtoes 3.77854
lfemur -47.7209 22.677 -34.1873
ltibia 45.6945
lfoot 13.3093 -13.5213
ltoes -16.4265
1103
root -31.3707 17.3527 1.09243 188.927 -7.73354 -176.47
lowerback 8.50406 3.86795 11.7718
upperback -0.585232 6.26021 0.920476
thorax -4.2401 2.77194 -6.28894
lowerneck 3.01481 -6.26006 -0.799468
upperneck -6.32077 -8.23923 4.10017
head -2.30014 -4.23516 1.66923
rclavicle 4.27387e-014 -1.98785e-014
rhumerus -33.5504 10.8486 -90.7354
rradius 43.491
rwrist -2.4365
rhand -19.0677 -14.2659
rfingers 7.12502
rthumb 7.2398 -44.1221
lclavicle 4.27387e-014 -1.98785e-014
lhumerus -68.0136 1.50714 85.1492
lradius 36.9651
lwrist 24.3242
lhand -17.8203 15.8958
lfingers 7.12502
lthumb 8.44372 45.707
rfemur 3.11089 -9.24343 32.6023
rtibia 12.4327
rfoot 3.63485 3.09446
rtoes 3.75197
lfemur -46.6504 22.7655 -34.2353
ltibia 42.6883
lfoot 12.8413 -12.2158
ltoes -16.8691
1104
root -31.3784 17.3026 0.942656 188.989 -6.78923 -175.85
lowerback 8.28954 4.09414 12.0776
upperback -0.715293 6.56568 1.01975
thorax -4.17948 2.9102 -6.35884
lowerneck 2.89189 -6.16724 -0.675133
upperneck -6.192 -8.11718 4.00157
head -2.2475 -4.17228 1.60465
rclavicle -2.18663e-014 0
rhumerus -33.8849 10.9858 -90.9353
rradius 43.957
rwrist -2.54842
rhand -19.0133 -14.3168
rfingers 7.12502
rthumb 7.29233 -44.1712
lclavicle -2.18663e-014 0
lhumerus -68.6559 1.78275 85.5647
lradius 36.6793
lwrist 24.333
lhand -17.6164 15.9878
lfingers 7.12502
lthumb 8.64056 45.791
rfemur 4.05953 -9.8686 32.7706
rtibia 11.6844
rfoot 4.57811 4.35718
rtoes 3.75862
lfemur -45.6026 22.8392 -34.0903
ltibia 39.9916
lfoot 12.1684 -10.6853
ltoes -17.1545
1105
root -31.386 17.2446 0.787693 189.051 -5.78706 -175.198
lowerback 8.01325 4.32837 12.3996
upperback -0.834615 6.87027 1.11685
thorax -4.0687 3.05079 -6.42971
lowerneck 2.75179 -6.06103 -0.532601
upperneck -6.0313 -7.97693 3.90854
head -2.18205 -4.10044 1.53697
rclavicle -2.52457e-014 2.06736e-014
rhumerus -34.2132 11.1009 -91.145
rradius 44.3886
rwrist -2.57494
rhand -18.9163 -14.2921
rfingers 7.12502
rthumb 7.38593 -44.1431
lclavicle -2.52457e-014 2.06736e-014
lhumerus -69.2392 2.09685 85.8934
lradius 36.3189
lwrist 24.2951
lhand -17.4188 16.082
lfingers 7.12502
lthumb 8.83119 45.8772
rfemur 5.07992 -10.566 32.9097
rtibia 10.9024
rfoot 5.57398 5.70121
rtoes 3.83849
lfemur -44.6053 22.9716 -33.8437
ltibia 37.6497
lfoot 11.3005 -9.25398
ltoes -18.2374
1106
root -31.3925 17.178 0.627912 189.112 -4.74346 -174.527
lowerback 7.68193 4.56743 12.734
upperback -0.941253 7.16939 1.20324
thorax -3.90948 3.19195 -6.50781
lowerneck 2.59425 -5.93882 -0.392594
upperneck -5.8366 -7.81512 3.84626
head -2.10142 -4.01819 1.47757
rclavicle -9.16397e-014 -9.06458e-014
rhumerus -34.5295 11.1738 -91.3678
rradius 44.7797
rwrist -2.52491
rhand -18.804 -14.2161
rfingers 7.12502
rthumb 7.4943 -44.0634
lclavicle -9.16397e-014 -9.06458e-014
lhumerus -69.7573 2.41159 86.1493
lradius 35.8882
lwrist 24.2164
lhand -17.2261 16.176
lfingers 7.12502
lthumb 9.01714 45.9633
rfemur 6.13411 -11.2721 33.0193
rtibia 10.1715
rfoot 6.55098 7.07147
rtoes 4.0087
lfemur -43.6933 23.2566 -33.5945
ltibia 35.7002
lfoot 10.1777 -8.37078
ltoes -21.547
1107
root -31.3963 17.1028 0.464848 189.167 -3.69794 -173.846
lowerback 7.31367 4.79738 13.0719
upperback -1.04171 7.44677 1.27682
thorax -3.72289 3.32448 -6.59149
lowerneck 2.42607 -5.80202 -0.248198
upperneck -5.60847 -7.63344 3.81991
head -2.0072 -3.92662 1.42741
rclavicle 3.11098e-014 -2.38542e-014
rhumerus -34.8342 11.1923 -91.6095
rradius 45.12
rwrist -2.39462
rhand -18.6832 -14.1029
rfingers 7.12502
rthumb 7.61094 -43.946
lclavicle 3.11098e-014 -2.38542e-014
lhumerus -70.2108 2.70381 86.339
lradius 35.3878
lwrist 24.0966
lhand -17.0226 16.2635
lfingers 7.12502
lthumb 9.21353 46.0422
rfemur 7.1484 -10.0447 33.3545
rtibia 9.53745
rfoot 6.34535 6.86435
rtoes 4.40301
lfemur -42.8521 23.7094 -33.3626
ltibia 34.1703
lfoot 8.68817 -8.27451
ltoes -27.3494
1108
root -31.3959 17.021 0.300623 189.215 -2.70055 -173.166
lowerback 6.93125 4.99677 13.3969
upperback -1.14452 7.677 1.34257
thorax -3.53905 3.43386 -6.66893
lowerneck 2.25266 -5.64761 -0.122242
upperneck -5.34227 -7.42871 3.84021
head -1.89792 -3.82372 1.39378
rclavicle -4.19436e-014 4.29375e-014
rhumerus -35.1288 11.1713 -91.8783
rradius 45.4086
rwrist -2.21671
rhand -18.5881 -13.998
rfingers 7.12502
rthumb 7.70272 -43.8377
lclavicle -4.19436e-014 4.29375e-014
lhumerus -70.6008 2.97995 86.4622
lradius 34.8175
lwrist 23.9297
lhand -16.7902 16.3411
lfingers 7.12502
lthumb 9.43779 46.1098
rfemur 8.20098 -8.87341 33.7428
rtibia 8.90798
rfoot 6.08967 6.62853
rtoes 5.06518
lfemur -42.0918 24.3266 -33.1517
ltibia 33.0829
lfoot 6.48407 -9.00472
ltoes -34.8518
1109
root -31.3902 16.9344 0.137612 189.255 -1.79572 -172.484
lowerback 6.56436 5.15308 13.7032
upperback -1.26369 7.84942 1.40827
thorax -3.39445 3.51139 -6.73414
lowerneck 2.09243 -5.48803 0.00669138
upperneck -5.06218 -7.21734 3.89302
head -1.78592 -3.71808 1.37055
rclavicle -1.14997e-013 -4.05521e-014
rhumerus -35.429 11.1174 -92.1747
rradius 45.654
rwrist -2.04047
rhand -18.5615 -13.9394
rfingers 7.12502
rthumb 7.72836 -43.7782
lclavicle -1.14997e-013 -4.05521e-014
lhumerus -70.9316 3.22343 86.5355
lradius 34.1801
lwrist 23.7177
lhand -16.5414 16.4238
lfingers 7.12502
lthumb 9.67779 46.1815
rfemur 9.36908 -7.79531 34.2092
rtibia 8.11868
rfoot 5.84661 6.31506
rtoes 5.94482
lfemur -41.4202 25.0969 -32.9524
ltibia 32.4346
lfoot 3.35624 -9.83031
ltoes -41.3851
1110
root -31.3783 16.8468 -0.0224645 189.301 -0.993854 -171.797
lowerback 6.22144 5.26202 13.9798
upperback -1.40625 7.96002 1.48057
thorax -3.30538 3.55344 -6.77724
lowerneck 1.94607 -5.31645 0.109829
upperneck -4.7682 -6.99121 3.98811
head -1.67033 -3.60525 1.36543
rclavicle -8.92543e-014 -4.13472e-014
rhumerus -35.7282 11.0398 -92.4983
rradius 45.8523
rwrist -1.88555
rhand -18.6236 -13.9391
rfingers 7.12502
rthumb 7.66849 -43.78
lclavicle -8.92543e-014 -4.13472e-014
lhumerus -71.1893 3.44424 86.5514
lradius 33.4692
lwrist 23.4667
lhand -16.2558 16.4998
lfingers 7.12502
lthumb 9.95342 46.2445
rfemur 10.7683 -6.831 34.781
rtibia 6.90667
rfoot 5.72697 5.86999
rtoes 6.86722
lfemur -40.8444 25.9344 -32.7016
ltibia 32.1829
lfoot 0.0618068 -9.8055
ltoes -44.5052
1111
root -31.3611 16.761 -0.178851 189.341 -0.308169 -171.122
lowerback 5.92586 4.99041 14.1674
upperback -1.56148 8.06724 1.57422
thorax -3.32336 3.81122 -6.78422
lowerneck 1.81224 -5.14255 0.220589
upperneck -4.48012 -6.76332 4.08901
head -1.5595 -3.49171 1.36217
rclavicle 1.23743e-013 1.82882e-014
rhumerus -36.0252 10.9344 -92.8342
rradius 45.992
rwrist -1.73965
rhand -18.7779 -13.9893
rfingers 7.12502
rthumb 7.51952 -43.8357
lclavicle 1.23743e-013 1.82882e-014
lhumerus -71.3644 3.66125 86.5067
lradius 32.6756
lwrist 23.1731
lhand -15.9347 16.576
lfingers 7.12502
lthumb 10.2632 46.3056
rfemur 12.579 -6.00119 35.4589
rtibia 4.93351
rfoot 5.87559 5.20936
rtoes 7.73349
lfemur -40.3262 26.7149 -32.3433
ltibia 32.2301
lfoot -2.63525 -9.01562
ltoes -44.7521
1112
root -31.3394 16.6813 -0.331566 189.372 0.257586 -170.504
lowerback 5.68544 4.96649 14.3054
upperback -1.73839 8.03784 1.65988
thorax -3.38179 3.78693 -6.75181
lowerneck 1.68711 -4.95892 0.298612
upperneck -4.20562 -6.52426 4.21943
head -1.45336 -3.37278 1.3748
rclavicle -5.04913e-014 0
rhumerus -36.299 10.7903 -93.1739
rradius 46.062
rwrist -1.60663
rhand -19.033 -14.0758
rfingers 7.12502
rthumb 7.27326 -43.9308
lclavicle -5.04913e-014 0
lhumerus -71.4157 3.89781 86.3591
lradius 31.7672
lwrist 22.7989
lhand -15.601 16.6486
lfingers 7.12502
lthumb 10.585 46.362
rfemur 15.9575 -5.35435 36.3494
rtibia 3.49861e-014
rfoot 7.06833 3.65757
rtoes 8.38483
lfemur -39.8391 27.3094 -31.8565
ltibia 32.4592
lfoot -4.53787 -7.94105
ltoes -42.7717
1113
root -31.3144 16.6069 -0.480328 189.385 0.699688 -170.014
lowerback 5.4964 4.88513 14.3222
upperback -1.91467 7.92573 1.71656
thorax -3.49625 3.71803 -6.68989
lowerneck 1.54827 -4.76805 0.356712
upperneck -3.93818 -6.27786 4.36828
head -1.34673 -3.2501 1.39684
rclavicle -2.92213e-014 -3.85642e-014
rhumerus -36.5383 10.5748 -93.4994
rradius 46.055
rwrist -1.41807
rhand -19.3165 -14.138
rfingers 7.12502
rthumb 6.99959 -44.0023
lclavicle -2.92213e-014 -3.85642e-014
lhumerus -71.3121 4.15572 86.0821
lradius 30.7296
lwrist 22.3348
lhand -15.2752 16.7127
lfingers 7.12502
lthumb 10.8993 46.4098
rfemur 16.7062 -4.78393 36.7705
rtibia 3.49861e-014
rfoot 6.68999 3.73583
rtoes 8.75815
lfemur -39.4047 27.8387 -31.419
ltibia 32.7454
lfoot -6.07569 -6.92296
ltoes -39.7755
1114
root -31.2871 16.5403 -0.625148 189.358 1.01761 -169.696
lowerback 5.37418 4.75566 14.2075
upperback -2.07878 7.74017 1.72045
thorax -3.65755 3.60933 -6.61855
lowerneck 1.38097 -4.58343 0.413458
upperneck -3.67963 -6.04227 4.5289
head -1.23811 -3.13279 1.42298
rclavicle 1.1778e-014 1.15295e-014
rhumerus -36.7396 10.2377 -93.7994
rradius 45.9706
rwrist -1.16785
rhand -19.6446 -14.1688
rfingers 7.12502
rthumb 6.68287 -44.0434
lclavicle 1.1778e-014 1.15295e-014
lhumerus -71.0258 4.41174 85.6517
lradius 29.55
lwrist 21.7599
lhand -14.9828 16.771
lfingers 7.12502
lthumb 11.1814 46.453
rfemur 17.446 -4.36427 37.0162
rtibia 6.36111e-015
rfoot 6.47585 3.90274
rtoes 8.88154
lfemur -38.9838 28.3055 -31.0652
ltibia 33.0009
lfoot -7.18298 -6.16924
ltoes -35.4355
1115
root -31.2575 16.4807 -0.765355 189.284 1.20529 -169.571
lowerback 5.3194 4.58015 13.9451
upperback -2.22854 7.48169 1.66937
thorax -3.8638 3.46196 -6.52984
lowerneck 1.19346 -4.39992 0.431617
upperneck -3.42445 -5.81086 4.72299
head -1.12577 -3.01726 1.46643
rclavicle 4.17945e-014 1.53064e-014
rhumerus -36.918 9.77406 -94.0621
rradius 45.812
rwrist -0.878245
rhand -20.0368 -14.1752
rfingers 7.12502
rthumb 6.30425 -44.0614
lclavicle 4.17945e-014 1.53064e-014
lhumerus -70.5393 4.73572 84.9572
lradius 28.1855
lwrist 20.9451
lhand -14.7444 16.8046
lfingers 7.12502
lthumb 11.4112 46.4741
rfemur 18.1697 -4.10628 37.0738
rtibia -3.18055e-014
rfoot 6.44315 4.11838
rtoes 8.83285
lfemur -38.5634 28.8655 -30.9144
ltibia 33.1739
lfoot -8.16753 -5.73314
ltoes -30.9903
1116
root -31.2263 16.4295 -0.901253 189.172 1.27911 -169.626
lowerback 5.30973 4.3667 13.5492
upperback -2.35964 7.1583 1.56687
thorax -4.09335 3.28232 -6.42298
lowerneck 0.987371 -4.22413 0.442524
upperneck -3.17966 -5.59185 4.91636
head -1.01392 -2.9074 1.5116
rclavicle -5.93869e-014 -3.26007e-014
rhumerus -37.0752 9.18564 -94.2788
rradius 45.5763
rwrist -0.546785
rhand -20.4848 -14.1554
rfingers 7.12502
rthumb 5.87176 -44.0541
lclavicle -5.93869e-014 -3.26007e-014
lhumerus -69.871 5.10586 84.0373
lradius 26.6892
lwrist 19.9471
lhand -14.5606 16.8102
lfingers 7.12502
lthumb 11.5886 46.4698
rfemur 18.8624 -3.99009 36.9594
rtibia 3.49861e-014
rfoot 6.5921 4.32886
rtoes 8.71347
lfemur -38.113 29.4696 -30.9185
ltibia 33.2651
lfoot -9.08934 -5.68793
ltoes -26.607
